<mxfile host="app.diagrams.net" agent="Mozilla/5.0 (Windows NT 10.0; Win64; x64) AppleWebKit/537.36 (KHTML, like Gecko) Chrome/130.0.0.0 Safari/537.36" version="24.8.3">
  <diagram name="Página-1" id="CLRT6QaLheMEbDpKp4TA">
    <mxGraphModel dx="1100" dy="585" grid="1" gridSize="10" guides="1" tooltips="1" connect="1" arrows="1" fold="1" page="1" pageScale="1" pageWidth="827" pageHeight="1169" math="0" shadow="0">
      <root>
        <mxCell id="0" />
        <mxCell id="1" parent="0" />
        <mxCell id="72yuVAIQtFYc-qkQcoFq-25" value="Professor" style="shape=umlActor;verticalLabelPosition=bottom;verticalAlign=top;html=1;outlineConnect=0;" vertex="1" parent="1">
          <mxGeometry x="20" y="20" width="30" height="60" as="geometry" />
        </mxCell>
        <mxCell id="72yuVAIQtFYc-qkQcoFq-26" value="Tela Principal" style="shape=umlBoundary;whiteSpace=wrap;html=1;" vertex="1" parent="1">
          <mxGeometry x="100" y="10" width="70" height="70" as="geometry" />
        </mxCell>
        <mxCell id="72yuVAIQtFYc-qkQcoFq-27" value="" style="rounded=0;whiteSpace=wrap;html=1;" vertex="1" parent="1">
          <mxGeometry x="25" y="150" width="20" height="300" as="geometry" />
        </mxCell>
        <mxCell id="72yuVAIQtFYc-qkQcoFq-28" value="" style="endArrow=none;dashed=1;html=1;dashPattern=1 3;strokeWidth=2;rounded=0;exitX=0.5;exitY=0;exitDx=0;exitDy=0;exitPerimeter=0;" edge="1" parent="1" source="72yuVAIQtFYc-qkQcoFq-27">
          <mxGeometry width="50" height="50" relative="1" as="geometry">
            <mxPoint x="35" y="140" as="sourcePoint" />
            <mxPoint x="35" y="100" as="targetPoint" />
            <Array as="points">
              <mxPoint x="35" y="110" />
            </Array>
          </mxGeometry>
        </mxCell>
        <mxCell id="72yuVAIQtFYc-qkQcoFq-29" value="" style="rounded=0;whiteSpace=wrap;html=1;" vertex="1" parent="1">
          <mxGeometry x="130" y="140" width="20" height="310" as="geometry" />
        </mxCell>
        <mxCell id="72yuVAIQtFYc-qkQcoFq-30" value="" style="endArrow=none;dashed=1;html=1;dashPattern=1 3;strokeWidth=2;rounded=0;exitX=0.5;exitY=0;exitDx=0;exitDy=0;exitPerimeter=0;entryX=0.557;entryY=1.029;entryDx=0;entryDy=0;entryPerimeter=0;" edge="1" parent="1" source="72yuVAIQtFYc-qkQcoFq-29" target="72yuVAIQtFYc-qkQcoFq-26">
          <mxGeometry width="50" height="50" relative="1" as="geometry">
            <mxPoint x="140" y="140" as="sourcePoint" />
            <mxPoint x="140" y="100" as="targetPoint" />
            <Array as="points">
              <mxPoint x="140" y="110" />
            </Array>
          </mxGeometry>
        </mxCell>
        <mxCell id="72yuVAIQtFYc-qkQcoFq-31" value="Controle de Duvidas" style="ellipse;shape=umlControl;whiteSpace=wrap;html=1;" vertex="1" parent="1">
          <mxGeometry x="220" y="5" width="60" height="70" as="geometry" />
        </mxCell>
        <mxCell id="72yuVAIQtFYc-qkQcoFq-32" value="" style="endArrow=none;dashed=1;html=1;dashPattern=1 3;strokeWidth=2;rounded=0;exitX=0.5;exitY=0;exitDx=0;exitDy=0;exitPerimeter=0;entryX=0.514;entryY=0.991;entryDx=0;entryDy=0;entryPerimeter=0;" edge="1" parent="1" source="72yuVAIQtFYc-qkQcoFq-33" target="72yuVAIQtFYc-qkQcoFq-31">
          <mxGeometry width="50" height="50" relative="1" as="geometry">
            <mxPoint x="250" y="130" as="sourcePoint" />
            <mxPoint x="250" y="90" as="targetPoint" />
            <Array as="points">
              <mxPoint x="250" y="100" />
            </Array>
          </mxGeometry>
        </mxCell>
        <mxCell id="72yuVAIQtFYc-qkQcoFq-33" value="" style="rounded=0;whiteSpace=wrap;html=1;" vertex="1" parent="1">
          <mxGeometry x="240" y="140" width="20" height="400" as="geometry" />
        </mxCell>
        <mxCell id="72yuVAIQtFYc-qkQcoFq-34" value="Tela de Duvidas" style="shape=umlBoundary;whiteSpace=wrap;html=1;" vertex="1" parent="1">
          <mxGeometry x="310" y="10" width="70" height="60" as="geometry" />
        </mxCell>
        <mxCell id="72yuVAIQtFYc-qkQcoFq-35" value="" style="endArrow=none;dashed=1;html=1;dashPattern=1 3;strokeWidth=2;rounded=0;exitX=0.5;exitY=0;exitDx=0;exitDy=0;exitPerimeter=0;entryX=0.557;entryY=1.029;entryDx=0;entryDy=0;entryPerimeter=0;" edge="1" parent="1" source="72yuVAIQtFYc-qkQcoFq-36" target="72yuVAIQtFYc-qkQcoFq-34">
          <mxGeometry width="50" height="50" relative="1" as="geometry">
            <mxPoint x="350" y="130" as="sourcePoint" />
            <mxPoint x="350" y="90" as="targetPoint" />
            <Array as="points">
              <mxPoint x="350" y="100" />
            </Array>
          </mxGeometry>
        </mxCell>
        <mxCell id="72yuVAIQtFYc-qkQcoFq-36" value="" style="rounded=0;whiteSpace=wrap;html=1;" vertex="1" parent="1">
          <mxGeometry x="340" y="140" width="20" height="400" as="geometry" />
        </mxCell>
        <mxCell id="72yuVAIQtFYc-qkQcoFq-37" value="Solicitar&lt;br&gt;&amp;nbsp;tela &lt;br&gt;de duvidas()" style="html=1;verticalAlign=bottom;endArrow=block;curved=0;rounded=0;entryX=-0.1;entryY=0.219;entryDx=0;entryDy=0;entryPerimeter=0;" edge="1" parent="1">
          <mxGeometry x="0.0663" y="11" width="80" relative="1" as="geometry">
            <mxPoint x="50" y="201" as="sourcePoint" />
            <mxPoint x="125" y="200" as="targetPoint" />
            <Array as="points">
              <mxPoint x="67" y="201" />
              <mxPoint x="97" y="201" />
              <mxPoint x="107" y="201" />
            </Array>
            <mxPoint as="offset" />
          </mxGeometry>
        </mxCell>
        <mxCell id="72yuVAIQtFYc-qkQcoFq-38" value="Selecionar&lt;br&gt;&amp;nbsp;tela &lt;br&gt;de duvidas()" style="html=1;verticalAlign=bottom;endArrow=block;curved=0;rounded=0;entryX=0;entryY=0.25;entryDx=0;entryDy=0;exitX=1;exitY=0.25;exitDx=0;exitDy=0;" edge="1" parent="1">
          <mxGeometry y="8" width="80" relative="1" as="geometry">
            <mxPoint x="150" y="210" as="sourcePoint" />
            <mxPoint x="230" y="210" as="targetPoint" />
            <mxPoint y="1" as="offset" />
          </mxGeometry>
        </mxCell>
        <mxCell id="72yuVAIQtFYc-qkQcoFq-39" value="Exibir&lt;br&gt;&amp;nbsp;tela &lt;br&gt;de duvidas()" style="html=1;verticalAlign=bottom;endArrow=block;curved=0;rounded=0;" edge="1" parent="1">
          <mxGeometry y="10" width="80" relative="1" as="geometry">
            <mxPoint x="260" y="220" as="sourcePoint" />
            <mxPoint x="340" y="220" as="targetPoint" />
            <mxPoint as="offset" />
          </mxGeometry>
        </mxCell>
        <mxCell id="72yuVAIQtFYc-qkQcoFq-40" value="" style="rounded=0;whiteSpace=wrap;html=1;" vertex="1" parent="1">
          <mxGeometry x="440" y="140" width="20" height="400" as="geometry" />
        </mxCell>
        <mxCell id="72yuVAIQtFYc-qkQcoFq-41" value="" style="endArrow=none;dashed=1;html=1;dashPattern=1 3;strokeWidth=2;rounded=0;exitX=0.5;exitY=0;exitDx=0;exitDy=0;exitPerimeter=0;entryX=0.557;entryY=1.029;entryDx=0;entryDy=0;entryPerimeter=0;" edge="1" parent="1" source="72yuVAIQtFYc-qkQcoFq-40" target="72yuVAIQtFYc-qkQcoFq-42">
          <mxGeometry width="50" height="50" relative="1" as="geometry">
            <mxPoint x="450" y="130" as="sourcePoint" />
            <mxPoint x="450" y="90" as="targetPoint" />
            <Array as="points">
              <mxPoint x="450" y="100" />
            </Array>
          </mxGeometry>
        </mxCell>
        <mxCell id="72yuVAIQtFYc-qkQcoFq-42" value="Lista de&amp;nbsp;&lt;div&gt;Duvidas&lt;/div&gt;" style="shape=umlBoundary;whiteSpace=wrap;html=1;" vertex="1" parent="1">
          <mxGeometry x="410" y="10" width="70" height="60" as="geometry" />
        </mxCell>
        <mxCell id="72yuVAIQtFYc-qkQcoFq-43" value="" style="rounded=0;whiteSpace=wrap;html=1;" vertex="1" parent="1">
          <mxGeometry x="570" y="140" width="20" height="310" as="geometry" />
        </mxCell>
        <mxCell id="72yuVAIQtFYc-qkQcoFq-44" value="" style="endArrow=none;dashed=1;html=1;dashPattern=1 3;strokeWidth=2;rounded=0;exitX=0.5;exitY=0;exitDx=0;exitDy=0;exitPerimeter=0;entryX=0.557;entryY=1.029;entryDx=0;entryDy=0;entryPerimeter=0;" edge="1" parent="1" source="72yuVAIQtFYc-qkQcoFq-43" target="72yuVAIQtFYc-qkQcoFq-45">
          <mxGeometry width="50" height="50" relative="1" as="geometry">
            <mxPoint x="580" y="130" as="sourcePoint" />
            <mxPoint x="580" y="90" as="targetPoint" />
            <Array as="points">
              <mxPoint x="580" y="100" />
            </Array>
          </mxGeometry>
        </mxCell>
        <mxCell id="72yuVAIQtFYc-qkQcoFq-45" value="Plataforma de&amp;nbsp;&lt;div&gt;Professores&lt;/div&gt;" style="shape=umlBoundary;whiteSpace=wrap;html=1;" vertex="1" parent="1">
          <mxGeometry x="530" y="10" width="90" height="80" as="geometry" />
        </mxCell>
        <mxCell id="72yuVAIQtFYc-qkQcoFq-48" value="[Não há dúvidas]&lt;div&gt;Mensagem de&amp;nbsp;&lt;/div&gt;&lt;div&gt;que não há&amp;nbsp;&lt;/div&gt;&lt;div&gt;duvidas pra&amp;nbsp;&lt;/div&gt;&lt;div&gt;responder()&lt;/div&gt;" style="html=1;verticalAlign=bottom;endArrow=block;curved=0;rounded=0;exitX=-0.1;exitY=0.935;exitDx=0;exitDy=0;exitPerimeter=0;entryX=1.016;entryY=0.933;entryDx=0;entryDy=0;entryPerimeter=0;" edge="1" parent="1">
          <mxGeometry y="-10" width="80" relative="1" as="geometry">
            <mxPoint x="567.68" y="430.62" as="sourcePoint" />
            <mxPoint x="460.00000000000017" y="430.0000000000001" as="targetPoint" />
            <mxPoint as="offset" />
          </mxGeometry>
        </mxCell>
        <mxCell id="72yuVAIQtFYc-qkQcoFq-49" value="Visualizar lista&amp;nbsp;&lt;div&gt;de duvidas dos&lt;/div&gt;&lt;div&gt;alunos()&lt;/div&gt;" style="html=1;verticalAlign=bottom;endArrow=block;curved=0;rounded=0;" edge="1" parent="1">
          <mxGeometry y="5" width="80" relative="1" as="geometry">
            <mxPoint x="360" y="230" as="sourcePoint" />
            <mxPoint x="440" y="230" as="targetPoint" />
            <mxPoint y="1" as="offset" />
          </mxGeometry>
        </mxCell>
        <mxCell id="72yuVAIQtFYc-qkQcoFq-54" value="&lt;div&gt;Digitar uma&amp;nbsp;&lt;/div&gt;&lt;div&gt;resposta()&lt;/div&gt;" style="html=1;verticalAlign=bottom;endArrow=block;curved=0;rounded=0;exitX=0;exitY=0.452;exitDx=0;exitDy=0;exitPerimeter=0;entryX=-0.089;entryY=0.528;entryDx=0;entryDy=0;entryPerimeter=0;" edge="1" parent="1" source="72yuVAIQtFYc-qkQcoFq-43" target="72yuVAIQtFYc-qkQcoFq-43">
          <mxGeometry x="-0.4433" width="80" relative="1" as="geometry">
            <mxPoint x="557" y="280.14" as="sourcePoint" />
            <mxPoint x="569" y="306" as="targetPoint" />
            <mxPoint as="offset" />
            <Array as="points">
              <mxPoint x="520" y="280" />
              <mxPoint x="520" y="304" />
            </Array>
          </mxGeometry>
        </mxCell>
        <mxCell id="72yuVAIQtFYc-qkQcoFq-56" value="&lt;div&gt;Responder Duvida()&lt;/div&gt;" style="html=1;verticalAlign=bottom;endArrow=block;curved=0;rounded=0;entryX=1.1;entryY=0.555;entryDx=0;entryDy=0;entryPerimeter=0;exitX=-0.05;exitY=0.648;exitDx=0;exitDy=0;exitPerimeter=0;" edge="1" parent="1" source="72yuVAIQtFYc-qkQcoFq-43">
          <mxGeometry x="-0.1008" y="-1" width="80" relative="1" as="geometry">
            <mxPoint x="560" y="340" as="sourcePoint" />
            <mxPoint x="460" y="340.04999999999995" as="targetPoint" />
            <mxPoint as="offset" />
          </mxGeometry>
        </mxCell>
        <mxCell id="72yuVAIQtFYc-qkQcoFq-57" value="Verificar se há&lt;div&gt;duvidas&lt;/div&gt;" style="html=1;verticalAlign=bottom;endArrow=block;curved=0;rounded=0;entryX=0;entryY=0.323;entryDx=0;entryDy=0;entryPerimeter=0;" edge="1" parent="1" target="72yuVAIQtFYc-qkQcoFq-43">
          <mxGeometry y="10" width="80" relative="1" as="geometry">
            <mxPoint x="460" y="240" as="sourcePoint" />
            <mxPoint x="540" y="240" as="targetPoint" />
            <mxPoint as="offset" />
          </mxGeometry>
        </mxCell>
        <mxCell id="72yuVAIQtFYc-qkQcoFq-61" value="&lt;div&gt;&lt;br&gt;&lt;/div&gt;&lt;div&gt;[Duvida&lt;/div&gt;&lt;div&gt;&amp;nbsp;Respondida]&lt;/div&gt;&lt;div&gt;Tirar duvida&lt;/div&gt;&lt;div&gt;da lista()&lt;/div&gt;" style="html=1;verticalAlign=bottom;endArrow=block;curved=0;rounded=0;exitX=0.017;exitY=0.646;exitDx=0;exitDy=0;exitPerimeter=0;" edge="1" parent="1">
          <mxGeometry x="0.0042" width="80" relative="1" as="geometry">
            <mxPoint x="440.34000000000015" y="350.26" as="sourcePoint" />
            <mxPoint x="360" y="350" as="targetPoint" />
            <mxPoint as="offset" />
          </mxGeometry>
        </mxCell>
        <mxCell id="72yuVAIQtFYc-qkQcoFq-62" value="&lt;div&gt;&lt;br&gt;&lt;/div&gt;&lt;div&gt;Atualizar&lt;/div&gt;&lt;div&gt;Lista de&amp;nbsp;&lt;/div&gt;&lt;div&gt;Duvidas()&lt;/div&gt;" style="html=1;verticalAlign=bottom;endArrow=block;curved=0;rounded=0;exitX=0.017;exitY=0.646;exitDx=0;exitDy=0;exitPerimeter=0;" edge="1" parent="1">
          <mxGeometry x="0.0042" width="80" relative="1" as="geometry">
            <mxPoint x="340" y="448.95" as="sourcePoint" />
            <mxPoint x="260" y="448.95" as="targetPoint" />
            <mxPoint as="offset" />
          </mxGeometry>
        </mxCell>
      </root>
    </mxGraphModel>
  </diagram>
</mxfile>
